<svg width="200" height="200" viewBox="0 0 200 200" fill="none" xmlns="http://www.w3.org/2000/svg">
  <!-- Background circle -->
  <circle cx="100" cy="100" r="96" fill="#15803d"/>

  <!-- Villa roof — joglo style, 3 layered roofs -->
  <!-- Bottom/widest roof -->
  <polygon points="30,118 170,118 155,98 45,98" fill="#f0fdf4"/>
  <!-- Middle roof -->
  <polygon points="52,98 148,98 136,80 64,80" fill="#dcfce7"/>
  <!-- Top/peak roof -->
  <polygon points="72,80 128,80 120,65 80,65" fill="#f0fdf4"/>

  <!-- Roof ridge line top -->
  <line x1="80" y1="65" x2="120" y2="65" stroke="#15803d" stroke-width="2.5" stroke-linecap="round"/>

  <!-- Villa body / walls -->
  <rect x="72" y="118" width="56" height="36" fill="#f0fdf4"/>

  <!-- Door arch -->
  <path d="M91,154 L91,134 Q100,126 109,134 L109,154 Z" fill="#15803d"/>

  <!-- Window left -->
  <rect x="77" y="123" width="10" height="10" rx="1" fill="#15803d" opacity="0.5"/>
  <!-- Window right -->
  <rect x="113" y="123" width="10" height="10" rx="1" fill="#15803d" opacity="0.5"/>

  <!-- Ground line -->
  <line x1="55" y1="154" x2="145" y2="154" stroke="#86efac" stroke-width="2" stroke-linecap="round"/>

  <!-- Palm/tropical leaf left -->
  <path d="M55,154 Q42,130 30,120" stroke="#86efac" stroke-width="3" stroke-linecap="round" fill="none"/>
  <path d="M55,154 Q38,138 28,138" stroke="#86efac" stroke-width="2.5" stroke-linecap="round" fill="none"/>
  <path d="M55,154 Q40,150 30,155" stroke="#86efac" stroke-width="2" stroke-linecap="round" fill="none"/>

  <!-- Palm/tropical leaf right -->
  <path d="M145,154 Q158,130 170,120" stroke="#86efac" stroke-width="3" stroke-linecap="round" fill="none"/>
  <path d="M145,154 Q162,138 172,138" stroke="#86efac" stroke-width="2.5" stroke-linecap="round" fill="none"/>
  <path d="M145,154 Q160,150 170,155" stroke="#86efac" stroke-width="2" stroke-linecap="round" fill="none"/>

  <!-- Stars / sparkle top — Bali sun motif -->
  <circle cx="100" cy="44" r="5" fill="#86efac"/>
  <line x1="100" y1="34" x2="100" y2="32" stroke="#86efac" stroke-width="2" stroke-linecap="round"/>
  <line x1="100" y1="54" x2="100" y2="56" stroke="#86efac" stroke-width="2" stroke-linecap="round"/>
  <line x1="90" y1="44" x2="88" y2="44" stroke="#86efac" stroke-width="2" stroke-linecap="round"/>
  <line x1="110" y1="44" x2="112" y2="44" stroke="#86efac" stroke-width="2" stroke-linecap="round"/>
  <line x1="93" y1="37" x2="92" y2="36" stroke="#86efac" stroke-width="2" stroke-linecap="round"/>
  <line x1="107" y1="51" x2="108" y2="52" stroke="#86efac" stroke-width="2" stroke-linecap="round"/>
  <line x1="107" y1="37" x2="108" y2="36" stroke="#86efac" stroke-width="2" stroke-linecap="round"/>
  <line x1="93" y1="51" x2="92" y2="52" stroke="#86efac" stroke-width="2" stroke-linecap="round"/>
</svg>
